<?xml version="1.0" standalone="no"?><!DOCTYPE svg PUBLIC "-//W3C//DTD SVG 1.1//EN" "http://www.w3.org/Graphics/SVG/1.1/DTD/svg11.dtd"><svg t="1557843410306" class="icon" style="" viewBox="0 0 1024 1024" version="1.1" xmlns="http://www.w3.org/2000/svg" p-id="1236" xmlns:xlink="http://www.w3.org/1999/xlink" width="200" height="200"><defs><style type="text/css"></style></defs><path d="M176.0768 142.6432h93.7984v228.096H176.0768z" fill="#DCDDDD" p-id="1237"></path><path d="M707.584 345.088v50.0224c0 29.44-20.736 41.4208-46.08 26.7264s-46.08-50.688-46.08-80.128V291.84L419.2256 178.6368v50.0224c0 29.44-20.736 41.4208-46.08 26.7264s-46.08-50.688-46.08-80.128v-50.0736l-76.8512-44.1344v474.624l533.8624 308.224V389.12z" fill="#DCDDDD" p-id="1238"></path><path d="M784.0256 864.0512l-136.6016 78.8992V468.3776l136.6016-78.8992v474.5728z" fill="#DCDDDD" p-id="1239"></path><path d="M190.0544 204.288l136.6528-79.104-76.4928-44.1344-136.6528 79.104 76.4928 44.1344z" fill="#F6F6F6" p-id="1240"></path><path d="M372.9408 88.7296a14.6432 14.6432 0 0 0-13.8752-1.536l-1.0752 0.6144-135.68 78.5408 24.1152 57.1904h12.288V256l-9.0624 8.8576v44.3904L385.5872 230.4c5.12-1.7408 8.8064-7.2704 9.5744-15.36V131.4816c0.1536-16.4352-9.8304-35.584-22.2208-42.752z" fill="#787878" p-id="1241"></path><path d="M236.3392 307.456c-12.3392-7.1168-22.3744-26.2656-22.3744-42.752V184.7808c0-16.4864 10.24-24.064 22.3744-16.896 12.3392 7.1168 22.3744 26.2656 22.3744 42.752v79.9232c0 16.64-10.0352 24.064-22.3744 16.896z" fill="#868686" p-id="1242"></path><path d="M282.5728 257.7408l136.6528-79.104 195.84 113.0496-136.6528 79.104-195.84-113.0496z" fill="#F6F6F6" p-id="1243"></path><path d="M661.2992 255.232a14.6432 14.6432 0 0 0-13.8752-1.536l-1.0752 0.6144L510.6688 332.8l24.1152 57.1904h12.288v32.4096l-9.0624 8.8576v44.4928l135.9872-78.7968c5.12-1.7408 8.8064-7.2704 9.5744-15.36V297.984c0.1024-16.384-9.9328-35.584-22.272-42.752z" fill="#787878" p-id="1244"></path><path d="M524.6976 473.9584c-12.3392-7.1168-22.3744-26.2656-22.3744-42.752V351.2832c0-16.4864 10.24-24.064 22.3744-16.896 12.3392 7.1168 22.3744 26.2656 22.3744 42.752v79.9232c-0.0512 16.4352-10.0352 24.2176-22.3744 16.896z" fill="#868686" p-id="1245"></path><path d="M570.9312 424.192v50.0224c0 29.44-20.736 41.4208-46.08 26.7264s-46.08-50.688-46.08-80.128v-50.0224L282.5728 257.7408v50.0224c0 29.44-20.736 41.4208-46.08 26.7264s-46.08-50.688-46.08-80.128V204.288l-76.8512-44.1344V634.88l533.8624 308.224V468.3776z" fill="#EBEBEC" p-id="1246"></path><path d="M570.9312 424.192L707.584 345.088l76.4416 44.3904-136.6016 78.848-76.4928-44.1344z" fill="#F6F6F6" p-id="1247"></path><path d="M155.4432 312.8832v293.4272l450.1504 259.8912v-293.4272z m423.424 375.7568l-114.432-66.048V522.24l114.432 66.048z m-255.5904-147.5584V440.6272L437.7088 506.88v100.4544z m114.432 96.9216v100.4544l-114.432-66.048V571.904zM296.5504 424.96v100.4544L182.1184 459.5712V359.168zM182.1184 490.4448l114.432 66.048v100.4544l-114.432-66.048z m282.2656 263.424v-100.4544l114.432 66.048v100.4544z" fill="#8470FF" p-id="1248"></path><path d="M283.904 861.5424l53.6576-121.7024 28.7744 107.3152-82.432 14.3872z" fill="#FFD700" p-id="1249"></path><path d="M473.6512 875.7248l-107.1104-28.672L706.7136 506.88l107.1104 28.672-340.1728 340.1728z" fill="#9932CC" p-id="1250"></path><path d="M366.5408 847.0528l-28.672-107.1104 340.1728-340.1728 28.672 107.1104-340.1728 340.1728z" fill="#9932CC" p-id="1251"></path><path d="M473.5488 875.8272l-28.672-107.1104 340.1216-340.1728 28.7232 107.1104-340.1728 340.1728z" fill="#9400D3" p-id="1252"></path><path d="M706.7136 506.88l107.1104 28.672-28.7232-107.1104-107.008-28.7232L706.7136 506.88z" fill="#9400D3" p-id="1253"></path><path d="M724.8896 488.704l-28.672-107.1104 78.3872-78.4384 28.7232 107.1104-78.4384 78.4384z" fill="#868686" p-id="1254"></path><path d="M831.9488 517.4272l-28.7232-107.1104 78.4384-78.3872 28.7232 107.1104-78.4384 78.3872z" fill="#D3D4D4" p-id="1255"></path><path d="M803.2256 410.3168l107.1616 28.7232-28.7232-107.1104-107.0592-28.7744 28.6208 107.1616z" fill="#9A9A9A" p-id="1256"></path><path d="M832 517.376l-107.1104-28.672 78.4384-78.4384 107.1104 28.7232-78.4384 78.3872z" fill="#787878" p-id="1257"></path><path d="M473.4976 875.8784l-189.5936-14.336 82.4832-14.336 107.1104 28.672z" fill="#FFA500" p-id="1258"></path></svg>